<svg xmlns="http://www.w3.org/2000/svg" viewBox="0 0 1448 1086" width="1448" height="1086" fill="none">
  <defs>
    <clipPath id="coreClip">
      <path d="M 1097.0 311.0 L 1081.0 282.0 L 1014.0 283.0 L 911.0 302.0 L 778.0 346.0 L 677.0 390.0 L 588.0 439.0 L 437.0 536.0 L 348.0 602.0 L 384.0 670.0 L 425.0 722.0 L 498.0 784.0 L 567.0 821.0 L 629.0 841.0 L 695.0 851.0 L 784.0 847.0 L 869.0 824.0 L 938.0 789.0 L 998.0 743.0 L 1050.0 685.0 L 1092.0 614.0 L 1117.0 538.0 L 1126.0 460.0 L 1120.0 387.0 Z"/>
    </clipPath>
    <radialGradient id="irisBase" cx="0" cy="0" r="1" gradientUnits="userSpaceOnUse" gradientTransform="translate(742 572) rotate(0) scale(360 280)">
      <stop offset="0.00" stop-color="#7DFF5A"/>
      <stop offset="0.36" stop-color="#39FF14"/>
      <stop offset="0.70" stop-color="#0FAF00"/>
      <stop offset="1.00" stop-color="#002300"/>
    </radialGradient>
    <radialGradient id="irisShade" cx="0" cy="0" r="1" gradientUnits="userSpaceOnUse" gradientTransform="translate(635 456) rotate(0) scale(520 400)">
      <stop offset="0.00" stop-color="#000000" stop-opacity="0.00"/>
      <stop offset="0.60" stop-color="#000000" stop-opacity="0.00"/>
      <stop offset="1.00" stop-color="#000000" stop-opacity="0.40"/>
    </radialGradient>
  </defs>
  <g clip-path="url(#coreClip)">
    <ellipse cx="760" cy="585" rx="350" ry="270" fill="url(#irisBase)"/>
    <ellipse cx="760" cy="585" rx="350" ry="270" fill="url(#irisShade)"/>
    <circle cx="699" cy="484" r="161" fill="#000000"/>
    <ellipse cx="688" cy="451" rx="50" ry="28" transform="rotate(-40 688 451)" fill="#FFFFFF"/>
  </g>
</svg>
